<mxfile host="app.diagrams.net" agent="Mozilla/5.0 (Macintosh; Intel Mac OS X 10_15_7) AppleWebKit/537.36 (KHTML, like Gecko) Chrome/129.0.0.0 Safari/537.36" version="24.7.16">
  <diagram name="Page-1" id="NyPsMRJYf3G_9t_UeJ4V">
    <mxGraphModel dx="984" dy="697" grid="1" gridSize="10" guides="1" tooltips="1" connect="1" arrows="1" fold="1" page="1" pageScale="1" pageWidth="827" pageHeight="1169" math="0" shadow="0">
      <root>
        <mxCell id="0" />
        <mxCell id="1" parent="0" />
        <mxCell id="rEuhRtgpaYb325ypVxsG-81" value="" style="rounded=0;whiteSpace=wrap;html=1;" parent="1" vertex="1">
          <mxGeometry x="670" y="610" width="230" height="230" as="geometry" />
        </mxCell>
        <mxCell id="rEuhRtgpaYb325ypVxsG-79" value="" style="rounded=0;whiteSpace=wrap;html=1;" parent="1" vertex="1">
          <mxGeometry x="440" y="610" width="230" height="230" as="geometry" />
        </mxCell>
        <mxCell id="rEuhRtgpaYb325ypVxsG-7" value="" style="rounded=0;whiteSpace=wrap;html=1;" parent="1" vertex="1">
          <mxGeometry x="270" y="100" width="160" height="140" as="geometry" />
        </mxCell>
        <mxCell id="rEuhRtgpaYb325ypVxsG-1" value="" style="shape=cylinder3;whiteSpace=wrap;html=1;boundedLbl=1;backgroundOutline=1;size=15;" parent="1" vertex="1">
          <mxGeometry x="60" y="120" width="90" height="120" as="geometry" />
        </mxCell>
        <mxCell id="rEuhRtgpaYb325ypVxsG-2" value="" style="rounded=1;whiteSpace=wrap;html=1;" parent="1" vertex="1">
          <mxGeometry x="180" y="120" width="20" height="130" as="geometry" />
        </mxCell>
        <mxCell id="rEuhRtgpaYb325ypVxsG-5" value="File System" style="swimlane;whiteSpace=wrap;html=1;" parent="1" vertex="1">
          <mxGeometry x="320" y="260" width="100" height="110" as="geometry" />
        </mxCell>
        <mxCell id="rEuhRtgpaYb325ypVxsG-23" value="Proxy copy of fixture/result data" style="text;html=1;align=center;verticalAlign=middle;whiteSpace=wrap;rounded=0;" parent="rEuhRtgpaYb325ypVxsG-5" vertex="1">
          <mxGeometry x="10" y="40" width="60" height="30" as="geometry" />
        </mxCell>
        <mxCell id="rEuhRtgpaYb325ypVxsG-24" style="edgeStyle=orthogonalEdgeStyle;rounded=0;orthogonalLoop=1;jettySize=auto;html=1;exitX=0.5;exitY=1;exitDx=0;exitDy=0;" parent="rEuhRtgpaYb325ypVxsG-5" source="rEuhRtgpaYb325ypVxsG-23" target="rEuhRtgpaYb325ypVxsG-23" edge="1">
          <mxGeometry relative="1" as="geometry" />
        </mxCell>
        <mxCell id="rEuhRtgpaYb325ypVxsG-6" value="Data Access API" style="rounded=0;whiteSpace=wrap;html=1;" parent="1" vertex="1">
          <mxGeometry x="280" y="170" width="120" height="60" as="geometry" />
        </mxCell>
        <mxCell id="rEuhRtgpaYb325ypVxsG-8" value="" style="shape=cylinder3;whiteSpace=wrap;html=1;boundedLbl=1;backgroundOutline=1;size=15;" parent="1" vertex="1">
          <mxGeometry x="450" y="260" width="70" height="110" as="geometry" />
        </mxCell>
        <mxCell id="rEuhRtgpaYb325ypVxsG-9" value="" style="endArrow=none;dashed=1;html=1;dashPattern=1 3;strokeWidth=2;rounded=0;" parent="1" edge="1">
          <mxGeometry width="50" height="50" relative="1" as="geometry">
            <mxPoint x="220" y="360" as="sourcePoint" />
            <mxPoint x="220" y="60" as="targetPoint" />
          </mxGeometry>
        </mxCell>
        <mxCell id="rEuhRtgpaYb325ypVxsG-10" value="Rapid API" style="text;html=1;align=center;verticalAlign=middle;whiteSpace=wrap;rounded=0;" parent="1" vertex="1">
          <mxGeometry x="60" y="60" width="60" height="30" as="geometry" />
        </mxCell>
        <mxCell id="rEuhRtgpaYb325ypVxsG-11" value="fixture&lt;div&gt;and result data&lt;/div&gt;" style="text;html=1;align=center;verticalAlign=middle;whiteSpace=wrap;rounded=0;" parent="1" vertex="1">
          <mxGeometry x="70" y="165" width="60" height="30" as="geometry" />
        </mxCell>
        <mxCell id="rEuhRtgpaYb325ypVxsG-12" value="APIS" style="text;html=1;align=center;verticalAlign=middle;whiteSpace=wrap;rounded=0;" parent="1" vertex="1">
          <mxGeometry x="160" y="90" width="60" height="30" as="geometry" />
        </mxCell>
        <mxCell id="rEuhRtgpaYb325ypVxsG-13" value="Internet" style="text;html=1;align=center;verticalAlign=middle;whiteSpace=wrap;rounded=0;" parent="1" vertex="1">
          <mxGeometry x="190" y="20" width="60" height="30" as="geometry" />
        </mxCell>
        <mxCell id="rEuhRtgpaYb325ypVxsG-14" value="Server" style="text;html=1;align=center;verticalAlign=middle;whiteSpace=wrap;rounded=0;" parent="1" vertex="1">
          <mxGeometry x="310" y="40" width="60" height="30" as="geometry" />
        </mxCell>
        <mxCell id="rEuhRtgpaYb325ypVxsG-15" value="Fantasy league application" style="text;html=1;align=center;verticalAlign=middle;whiteSpace=wrap;rounded=0;" parent="1" vertex="1">
          <mxGeometry x="280" y="110" width="130" height="30" as="geometry" />
        </mxCell>
        <mxCell id="rEuhRtgpaYb325ypVxsG-17" value="API Keys" style="shape=document;whiteSpace=wrap;html=1;boundedLbl=1;" parent="1" vertex="1">
          <mxGeometry x="230" y="260" width="70" height="80" as="geometry" />
        </mxCell>
        <mxCell id="rEuhRtgpaYb325ypVxsG-18" value="" style="endArrow=classic;startArrow=classic;html=1;rounded=0;exitX=0.5;exitY=0;exitDx=0;exitDy=0;entryX=0.25;entryY=1;entryDx=0;entryDy=0;" parent="1" source="rEuhRtgpaYb325ypVxsG-17" target="rEuhRtgpaYb325ypVxsG-6" edge="1">
          <mxGeometry width="50" height="50" relative="1" as="geometry">
            <mxPoint x="390" y="310" as="sourcePoint" />
            <mxPoint x="440" y="260" as="targetPoint" />
          </mxGeometry>
        </mxCell>
        <mxCell id="rEuhRtgpaYb325ypVxsG-19" value="" style="endArrow=classic;startArrow=classic;html=1;rounded=0;exitX=1.05;exitY=0.615;exitDx=0;exitDy=0;exitPerimeter=0;" parent="1" source="rEuhRtgpaYb325ypVxsG-2" target="rEuhRtgpaYb325ypVxsG-6" edge="1">
          <mxGeometry width="50" height="50" relative="1" as="geometry">
            <mxPoint x="390" y="310" as="sourcePoint" />
            <mxPoint x="440" y="260" as="targetPoint" />
          </mxGeometry>
        </mxCell>
        <mxCell id="rEuhRtgpaYb325ypVxsG-20" value="" style="endArrow=classic;html=1;rounded=0;exitX=1;exitY=0;exitDx=0;exitDy=82.5;exitPerimeter=0;entryX=-0.05;entryY=0.631;entryDx=0;entryDy=0;entryPerimeter=0;" parent="1" source="rEuhRtgpaYb325ypVxsG-1" target="rEuhRtgpaYb325ypVxsG-2" edge="1">
          <mxGeometry width="50" height="50" relative="1" as="geometry">
            <mxPoint x="390" y="310" as="sourcePoint" />
            <mxPoint x="440" y="260" as="targetPoint" />
          </mxGeometry>
        </mxCell>
        <mxCell id="rEuhRtgpaYb325ypVxsG-21" value="" style="endArrow=classic;html=1;rounded=0;exitX=0.5;exitY=0;exitDx=0;exitDy=0;entryX=0.633;entryY=0.983;entryDx=0;entryDy=0;entryPerimeter=0;" parent="1" source="rEuhRtgpaYb325ypVxsG-5" target="rEuhRtgpaYb325ypVxsG-6" edge="1">
          <mxGeometry width="50" height="50" relative="1" as="geometry">
            <mxPoint x="390" y="310" as="sourcePoint" />
            <mxPoint x="440" y="260" as="targetPoint" />
          </mxGeometry>
        </mxCell>
        <mxCell id="rEuhRtgpaYb325ypVxsG-22" value="" style="endArrow=classic;startArrow=classic;html=1;rounded=0;exitX=0.3;exitY=-0.009;exitDx=0;exitDy=0;exitPerimeter=0;entryX=0.625;entryY=0.929;entryDx=0;entryDy=0;entryPerimeter=0;" parent="1" source="rEuhRtgpaYb325ypVxsG-8" target="rEuhRtgpaYb325ypVxsG-7" edge="1">
          <mxGeometry width="50" height="50" relative="1" as="geometry">
            <mxPoint x="390" y="310" as="sourcePoint" />
            <mxPoint x="440" y="260" as="targetPoint" />
          </mxGeometry>
        </mxCell>
        <mxCell id="rEuhRtgpaYb325ypVxsG-25" value="user prediction and result data" style="text;html=1;align=center;verticalAlign=middle;whiteSpace=wrap;rounded=0;" parent="1" vertex="1">
          <mxGeometry x="455" y="310" width="60" height="30" as="geometry" />
        </mxCell>
        <mxCell id="rEuhRtgpaYb325ypVxsG-26" value="HOME" style="swimlane;whiteSpace=wrap;html=1;" parent="1" vertex="1">
          <mxGeometry x="210" y="485" width="210" height="100" as="geometry" />
        </mxCell>
        <mxCell id="rEuhRtgpaYb325ypVxsG-29" value="Home login leaderboard predictions" style="text;html=1;align=center;verticalAlign=middle;whiteSpace=wrap;rounded=0;" parent="rEuhRtgpaYb325ypVxsG-26" vertex="1">
          <mxGeometry y="20" width="200" height="30" as="geometry" />
        </mxCell>
        <mxCell id="rEuhRtgpaYb325ypVxsG-32" value="welcome text" style="text;html=1;align=center;verticalAlign=middle;whiteSpace=wrap;rounded=0;" parent="rEuhRtgpaYb325ypVxsG-26" vertex="1">
          <mxGeometry x="30" y="50" width="60" height="30" as="geometry" />
        </mxCell>
        <mxCell id="rEuhRtgpaYb325ypVxsG-33" value="" style="whiteSpace=wrap;html=1;aspect=fixed;" parent="rEuhRtgpaYb325ypVxsG-26" vertex="1">
          <mxGeometry x="100" y="50" width="40" height="40" as="geometry" />
        </mxCell>
        <mxCell id="rEuhRtgpaYb325ypVxsG-31" value="" style="endArrow=none;html=1;rounded=0;" parent="1" edge="1">
          <mxGeometry width="50" height="50" relative="1" as="geometry">
            <mxPoint x="210" y="525" as="sourcePoint" />
            <mxPoint x="420" y="525" as="targetPoint" />
          </mxGeometry>
        </mxCell>
        <mxCell id="rEuhRtgpaYb325ypVxsG-39" value="LEADERBOARD" style="swimlane;whiteSpace=wrap;html=1;" parent="1" vertex="1">
          <mxGeometry y="620" width="210" height="110" as="geometry" />
        </mxCell>
        <mxCell id="rEuhRtgpaYb325ypVxsG-40" value="Home login leaderboard predictions" style="text;html=1;align=center;verticalAlign=middle;whiteSpace=wrap;rounded=0;" parent="rEuhRtgpaYb325ypVxsG-39" vertex="1">
          <mxGeometry y="20" width="200" height="30" as="geometry" />
        </mxCell>
        <mxCell id="rEuhRtgpaYb325ypVxsG-44" value="player points information" style="rounded=0;whiteSpace=wrap;html=1;" parent="rEuhRtgpaYb325ypVxsG-39" vertex="1">
          <mxGeometry x="20" y="50" width="170" height="50" as="geometry" />
        </mxCell>
        <mxCell id="rEuhRtgpaYb325ypVxsG-43" value="" style="endArrow=none;html=1;rounded=0;" parent="1" edge="1">
          <mxGeometry width="50" height="50" relative="1" as="geometry">
            <mxPoint y="660" as="sourcePoint" />
            <mxPoint x="210" y="660" as="targetPoint" />
          </mxGeometry>
        </mxCell>
        <mxCell id="rEuhRtgpaYb325ypVxsG-45" value="USER PROFILE" style="swimlane;whiteSpace=wrap;html=1;" parent="1" vertex="1">
          <mxGeometry x="220" y="620" width="210" height="100" as="geometry" />
        </mxCell>
        <mxCell id="rEuhRtgpaYb325ypVxsG-46" value="Home login leaderboard predictions" style="text;html=1;align=center;verticalAlign=middle;whiteSpace=wrap;rounded=0;" parent="rEuhRtgpaYb325ypVxsG-45" vertex="1">
          <mxGeometry y="20" width="200" height="30" as="geometry" />
        </mxCell>
        <mxCell id="rEuhRtgpaYb325ypVxsG-47" value="season&lt;div&gt;week&lt;/div&gt;" style="text;html=1;align=center;verticalAlign=middle;whiteSpace=wrap;rounded=0;" parent="rEuhRtgpaYb325ypVxsG-45" vertex="1">
          <mxGeometry x="30" y="50" width="60" height="30" as="geometry" />
        </mxCell>
        <mxCell id="rEuhRtgpaYb325ypVxsG-50" value="recent predictions" style="rounded=0;whiteSpace=wrap;html=1;" parent="rEuhRtgpaYb325ypVxsG-45" vertex="1">
          <mxGeometry x="80" y="50" width="120" height="40" as="geometry" />
        </mxCell>
        <mxCell id="rEuhRtgpaYb325ypVxsG-49" value="" style="endArrow=none;html=1;rounded=0;" parent="1" edge="1">
          <mxGeometry width="50" height="50" relative="1" as="geometry">
            <mxPoint x="220" y="660" as="sourcePoint" />
            <mxPoint x="430" y="660" as="targetPoint" />
          </mxGeometry>
        </mxCell>
        <mxCell id="rEuhRtgpaYb325ypVxsG-52" value="ADMIN PROFILE" style="swimlane;whiteSpace=wrap;html=1;" parent="1" vertex="1">
          <mxGeometry x="219" y="730" width="210" height="100" as="geometry" />
        </mxCell>
        <mxCell id="rEuhRtgpaYb325ypVxsG-53" value="Home login leaderboard predictions" style="text;html=1;align=center;verticalAlign=middle;whiteSpace=wrap;rounded=0;" parent="rEuhRtgpaYb325ypVxsG-52" vertex="1">
          <mxGeometry y="20" width="200" height="30" as="geometry" />
        </mxCell>
        <mxCell id="rEuhRtgpaYb325ypVxsG-54" value="season&lt;div&gt;week&lt;/div&gt;" style="text;html=1;align=center;verticalAlign=middle;whiteSpace=wrap;rounded=0;" parent="rEuhRtgpaYb325ypVxsG-52" vertex="1">
          <mxGeometry x="30" y="50" width="60" height="30" as="geometry" />
        </mxCell>
        <mxCell id="rEuhRtgpaYb325ypVxsG-55" value="update season/week" style="rounded=0;whiteSpace=wrap;html=1;" parent="rEuhRtgpaYb325ypVxsG-52" vertex="1">
          <mxGeometry x="80" y="50" width="120" height="40" as="geometry" />
        </mxCell>
        <mxCell id="rEuhRtgpaYb325ypVxsG-56" value="" style="endArrow=none;html=1;rounded=0;" parent="1" edge="1">
          <mxGeometry width="50" height="50" relative="1" as="geometry">
            <mxPoint x="219" y="770" as="sourcePoint" />
            <mxPoint x="429" y="770" as="targetPoint" />
          </mxGeometry>
        </mxCell>
        <mxCell id="rEuhRtgpaYb325ypVxsG-57" value="VIEW PREDICTIONS" style="swimlane;whiteSpace=wrap;html=1;" parent="1" vertex="1">
          <mxGeometry x="450" y="620" width="210" height="100" as="geometry" />
        </mxCell>
        <mxCell id="rEuhRtgpaYb325ypVxsG-58" value="Home login leaderboard predictions" style="text;html=1;align=center;verticalAlign=middle;whiteSpace=wrap;rounded=0;" parent="rEuhRtgpaYb325ypVxsG-57" vertex="1">
          <mxGeometry y="20" width="200" height="30" as="geometry" />
        </mxCell>
        <mxCell id="rEuhRtgpaYb325ypVxsG-60" value="game information predicton" style="rounded=0;whiteSpace=wrap;html=1;" parent="rEuhRtgpaYb325ypVxsG-57" vertex="1">
          <mxGeometry x="10" y="50" width="190" height="40" as="geometry" />
        </mxCell>
        <mxCell id="rEuhRtgpaYb325ypVxsG-61" value="" style="endArrow=none;html=1;rounded=0;" parent="1" edge="1">
          <mxGeometry width="50" height="50" relative="1" as="geometry">
            <mxPoint x="450" y="660" as="sourcePoint" />
            <mxPoint x="660" y="660" as="targetPoint" />
          </mxGeometry>
        </mxCell>
        <mxCell id="rEuhRtgpaYb325ypVxsG-62" value="ENTER PREDICTIONS" style="swimlane;whiteSpace=wrap;html=1;" parent="1" vertex="1">
          <mxGeometry x="450" y="730" width="210" height="100" as="geometry" />
        </mxCell>
        <mxCell id="rEuhRtgpaYb325ypVxsG-63" value="Home login leaderboard predictions" style="text;html=1;align=center;verticalAlign=middle;whiteSpace=wrap;rounded=0;" parent="rEuhRtgpaYb325ypVxsG-62" vertex="1">
          <mxGeometry y="20" width="200" height="30" as="geometry" />
        </mxCell>
        <mxCell id="rEuhRtgpaYb325ypVxsG-64" value="game information predicton" style="rounded=0;whiteSpace=wrap;html=1;" parent="rEuhRtgpaYb325ypVxsG-62" vertex="1">
          <mxGeometry x="10" y="50" width="190" height="40" as="geometry" />
        </mxCell>
        <mxCell id="rEuhRtgpaYb325ypVxsG-65" value="" style="endArrow=none;html=1;rounded=0;" parent="1" edge="1">
          <mxGeometry width="50" height="50" relative="1" as="geometry">
            <mxPoint x="450" y="770" as="sourcePoint" />
            <mxPoint x="660" y="770" as="targetPoint" />
          </mxGeometry>
        </mxCell>
        <mxCell id="rEuhRtgpaYb325ypVxsG-66" value="TEAM RESULTS" style="swimlane;whiteSpace=wrap;html=1;" parent="1" vertex="1">
          <mxGeometry x="680" y="620" width="210" height="100" as="geometry" />
        </mxCell>
        <mxCell id="rEuhRtgpaYb325ypVxsG-67" value="Home login leaderboard predictions" style="text;html=1;align=center;verticalAlign=middle;whiteSpace=wrap;rounded=0;" parent="rEuhRtgpaYb325ypVxsG-66" vertex="1">
          <mxGeometry y="20" width="200" height="30" as="geometry" />
        </mxCell>
        <mxCell id="rEuhRtgpaYb325ypVxsG-68" value="past results for team" style="rounded=0;whiteSpace=wrap;html=1;" parent="rEuhRtgpaYb325ypVxsG-66" vertex="1">
          <mxGeometry x="10" y="50" width="190" height="40" as="geometry" />
        </mxCell>
        <mxCell id="rEuhRtgpaYb325ypVxsG-69" value="" style="endArrow=none;html=1;rounded=0;" parent="1" edge="1">
          <mxGeometry width="50" height="50" relative="1" as="geometry">
            <mxPoint x="680" y="660" as="sourcePoint" />
            <mxPoint x="890" y="660" as="targetPoint" />
          </mxGeometry>
        </mxCell>
        <mxCell id="rEuhRtgpaYb325ypVxsG-70" value="FIXTURE RESULTS" style="swimlane;whiteSpace=wrap;html=1;" parent="1" vertex="1">
          <mxGeometry x="680" y="730" width="210" height="100" as="geometry" />
        </mxCell>
        <mxCell id="rEuhRtgpaYb325ypVxsG-71" value="Home login leaderboard predictions" style="text;html=1;align=center;verticalAlign=middle;whiteSpace=wrap;rounded=0;" parent="rEuhRtgpaYb325ypVxsG-70" vertex="1">
          <mxGeometry y="20" width="200" height="30" as="geometry" />
        </mxCell>
        <mxCell id="rEuhRtgpaYb325ypVxsG-72" value="past results between teams" style="rounded=0;whiteSpace=wrap;html=1;" parent="rEuhRtgpaYb325ypVxsG-70" vertex="1">
          <mxGeometry x="10" y="50" width="190" height="40" as="geometry" />
        </mxCell>
        <mxCell id="rEuhRtgpaYb325ypVxsG-73" value="" style="endArrow=none;html=1;rounded=0;" parent="1" edge="1">
          <mxGeometry width="50" height="50" relative="1" as="geometry">
            <mxPoint x="680" y="770" as="sourcePoint" />
            <mxPoint x="890" y="770" as="targetPoint" />
          </mxGeometry>
        </mxCell>
        <mxCell id="rEuhRtgpaYb325ypVxsG-74" value="" style="endArrow=classic;html=1;rounded=0;entryX=0.676;entryY=-0.032;entryDx=0;entryDy=0;entryPerimeter=0;exitX=0.25;exitY=1;exitDx=0;exitDy=0;" parent="1" source="rEuhRtgpaYb325ypVxsG-26" target="rEuhRtgpaYb325ypVxsG-39" edge="1">
          <mxGeometry width="50" height="50" relative="1" as="geometry">
            <mxPoint x="250" y="580" as="sourcePoint" />
            <mxPoint x="420" y="570" as="targetPoint" />
          </mxGeometry>
        </mxCell>
        <mxCell id="rEuhRtgpaYb325ypVxsG-76" value="" style="endArrow=classic;html=1;rounded=0;exitX=0.5;exitY=1;exitDx=0;exitDy=0;entryX=0.5;entryY=0;entryDx=0;entryDy=0;" parent="1" source="rEuhRtgpaYb325ypVxsG-26" target="rEuhRtgpaYb325ypVxsG-45" edge="1">
          <mxGeometry width="50" height="50" relative="1" as="geometry">
            <mxPoint x="370" y="620" as="sourcePoint" />
            <mxPoint x="420" y="570" as="targetPoint" />
          </mxGeometry>
        </mxCell>
        <mxCell id="rEuhRtgpaYb325ypVxsG-77" value="" style="endArrow=classic;html=1;rounded=0;exitX=0.75;exitY=1;exitDx=0;exitDy=0;entryX=0.124;entryY=-0.035;entryDx=0;entryDy=0;entryPerimeter=0;" parent="1" source="rEuhRtgpaYb325ypVxsG-26" target="rEuhRtgpaYb325ypVxsG-57" edge="1">
          <mxGeometry width="50" height="50" relative="1" as="geometry">
            <mxPoint x="370" y="620" as="sourcePoint" />
            <mxPoint x="420" y="570" as="targetPoint" />
          </mxGeometry>
        </mxCell>
        <mxCell id="rEuhRtgpaYb325ypVxsG-82" value="" style="endArrow=classic;html=1;rounded=0;exitX=0.722;exitY=-0.011;exitDx=0;exitDy=0;exitPerimeter=0;entryX=0.435;entryY=0;entryDx=0;entryDy=0;entryPerimeter=0;" parent="1" source="rEuhRtgpaYb325ypVxsG-79" target="rEuhRtgpaYb325ypVxsG-81" edge="1">
          <mxGeometry width="50" height="50" relative="1" as="geometry">
            <mxPoint x="570" y="620" as="sourcePoint" />
            <mxPoint x="620" y="570" as="targetPoint" />
            <Array as="points">
              <mxPoint x="680" y="590" />
            </Array>
          </mxGeometry>
        </mxCell>
        <mxCell id="rEuhRtgpaYb325ypVxsG-117" value="" style="group" parent="1" vertex="1" connectable="0">
          <mxGeometry x="1150" y="220" width="420" height="410" as="geometry" />
        </mxCell>
        <mxCell id="rEuhRtgpaYb325ypVxsG-83" value="" style="rounded=0;whiteSpace=wrap;html=1;" parent="rEuhRtgpaYb325ypVxsG-117" vertex="1">
          <mxGeometry x="225" y="105" width="160" height="140" as="geometry" />
        </mxCell>
        <mxCell id="rEuhRtgpaYb325ypVxsG-86" value="File System" style="swimlane;whiteSpace=wrap;html=1;" parent="rEuhRtgpaYb325ypVxsG-117" vertex="1">
          <mxGeometry x="200" y="295" width="100" height="110" as="geometry" />
        </mxCell>
        <mxCell id="rEuhRtgpaYb325ypVxsG-87" value="Proxy copy of fixture/result data" style="text;html=1;align=center;verticalAlign=middle;whiteSpace=wrap;rounded=0;" parent="rEuhRtgpaYb325ypVxsG-86" vertex="1">
          <mxGeometry x="10" y="50" width="60" height="20" as="geometry" />
        </mxCell>
        <mxCell id="rEuhRtgpaYb325ypVxsG-88" style="edgeStyle=orthogonalEdgeStyle;rounded=0;orthogonalLoop=1;jettySize=auto;html=1;exitX=0.5;exitY=1;exitDx=0;exitDy=0;" parent="rEuhRtgpaYb325ypVxsG-86" source="rEuhRtgpaYb325ypVxsG-87" target="rEuhRtgpaYb325ypVxsG-87" edge="1">
          <mxGeometry relative="1" as="geometry" />
        </mxCell>
        <mxCell id="rEuhRtgpaYb325ypVxsG-89" value="Data Access API" style="rounded=0;whiteSpace=wrap;html=1;" parent="rEuhRtgpaYb325ypVxsG-117" vertex="1">
          <mxGeometry x="235" y="200" width="120" height="35" as="geometry" />
        </mxCell>
        <mxCell id="rEuhRtgpaYb325ypVxsG-90" value="" style="shape=cylinder3;whiteSpace=wrap;html=1;boundedLbl=1;backgroundOutline=1;size=15;" parent="rEuhRtgpaYb325ypVxsG-117" vertex="1">
          <mxGeometry x="330" y="295" width="70" height="110" as="geometry" />
        </mxCell>
        <mxCell id="rEuhRtgpaYb325ypVxsG-94" value="Model - db SQLAlchemy" style="text;html=1;align=center;verticalAlign=middle;whiteSpace=wrap;rounded=0;" parent="rEuhRtgpaYb325ypVxsG-117" vertex="1">
          <mxGeometry x="45" y="196.25" width="180" height="30" as="geometry" />
        </mxCell>
        <mxCell id="rEuhRtgpaYb325ypVxsG-96" value="Server" style="text;html=1;align=center;verticalAlign=middle;whiteSpace=wrap;rounded=0;" parent="rEuhRtgpaYb325ypVxsG-117" vertex="1">
          <mxGeometry x="250" y="20" width="60" height="30" as="geometry" />
        </mxCell>
        <mxCell id="rEuhRtgpaYb325ypVxsG-97" value="Fantasy league application" style="text;html=1;align=center;verticalAlign=middle;whiteSpace=wrap;rounded=0;" parent="rEuhRtgpaYb325ypVxsG-117" vertex="1">
          <mxGeometry x="235" y="115" width="130" height="30" as="geometry" />
        </mxCell>
        <mxCell id="rEuhRtgpaYb325ypVxsG-102" value="" style="endArrow=classic;html=1;rounded=0;exitX=0.5;exitY=0;exitDx=0;exitDy=0;entryX=0.633;entryY=0.983;entryDx=0;entryDy=0;entryPerimeter=0;" parent="rEuhRtgpaYb325ypVxsG-117" source="rEuhRtgpaYb325ypVxsG-86" target="rEuhRtgpaYb325ypVxsG-89" edge="1">
          <mxGeometry width="50" height="50" relative="1" as="geometry">
            <mxPoint x="345" y="315" as="sourcePoint" />
            <mxPoint x="395" y="265" as="targetPoint" />
          </mxGeometry>
        </mxCell>
        <mxCell id="rEuhRtgpaYb325ypVxsG-103" value="" style="endArrow=classic;startArrow=classic;html=1;rounded=0;exitX=0.3;exitY=-0.009;exitDx=0;exitDy=0;exitPerimeter=0;entryX=0.625;entryY=0.929;entryDx=0;entryDy=0;entryPerimeter=0;" parent="rEuhRtgpaYb325ypVxsG-117" source="rEuhRtgpaYb325ypVxsG-90" target="rEuhRtgpaYb325ypVxsG-83" edge="1">
          <mxGeometry width="50" height="50" relative="1" as="geometry">
            <mxPoint x="345" y="315" as="sourcePoint" />
            <mxPoint x="395" y="265" as="targetPoint" />
          </mxGeometry>
        </mxCell>
        <mxCell id="rEuhRtgpaYb325ypVxsG-104" value="user prediction and result data" style="text;html=1;align=center;verticalAlign=middle;whiteSpace=wrap;rounded=0;" parent="rEuhRtgpaYb325ypVxsG-117" vertex="1">
          <mxGeometry x="335" y="345" width="60" height="30" as="geometry" />
        </mxCell>
        <mxCell id="rEuhRtgpaYb325ypVxsG-105" value="User" style="shape=umlActor;verticalLabelPosition=bottom;verticalAlign=top;html=1;outlineConnect=0;" parent="rEuhRtgpaYb325ypVxsG-117" vertex="1">
          <mxGeometry y="130" width="10" height="30" as="geometry" />
        </mxCell>
        <mxCell id="rEuhRtgpaYb325ypVxsG-107" value="Browser" style="rounded=0;whiteSpace=wrap;html=1;" parent="rEuhRtgpaYb325ypVxsG-117" vertex="1">
          <mxGeometry x="60" y="110" width="60" height="50" as="geometry" />
        </mxCell>
        <mxCell id="rEuhRtgpaYb325ypVxsG-110" value="" style="rounded=0;whiteSpace=wrap;html=1;fillColor=none;dashed=1;dashPattern=8 8;" parent="rEuhRtgpaYb325ypVxsG-117" vertex="1">
          <mxGeometry x="40" y="60" width="380" height="105" as="geometry" />
        </mxCell>
        <mxCell id="rEuhRtgpaYb325ypVxsG-111" value="App logic" style="rounded=0;whiteSpace=wrap;html=1;" parent="rEuhRtgpaYb325ypVxsG-117" vertex="1">
          <mxGeometry x="235" y="170" width="120" height="22.5" as="geometry" />
        </mxCell>
        <mxCell id="rEuhRtgpaYb325ypVxsG-112" value="View - Jinja" style="text;html=1;align=center;verticalAlign=middle;whiteSpace=wrap;rounded=0;" parent="rEuhRtgpaYb325ypVxsG-117" vertex="1">
          <mxGeometry x="70" y="65" width="240" height="30" as="geometry" />
        </mxCell>
        <mxCell id="rEuhRtgpaYb325ypVxsG-113" value="" style="rounded=0;whiteSpace=wrap;html=1;fillColor=none;dashed=1;dashPattern=8 8;" parent="rEuhRtgpaYb325ypVxsG-117" vertex="1">
          <mxGeometry x="40" y="170" width="380" height="20" as="geometry" />
        </mxCell>
        <mxCell id="rEuhRtgpaYb325ypVxsG-114" value="Control - flask/jinja" style="text;html=1;align=center;verticalAlign=middle;whiteSpace=wrap;rounded=0;" parent="rEuhRtgpaYb325ypVxsG-117" vertex="1">
          <mxGeometry x="20" y="166.25" width="240" height="30" as="geometry" />
        </mxCell>
        <mxCell id="rEuhRtgpaYb325ypVxsG-115" value="" style="rounded=0;whiteSpace=wrap;html=1;fillColor=none;dashed=1;dashPattern=8 8;" parent="rEuhRtgpaYb325ypVxsG-117" vertex="1">
          <mxGeometry x="40" y="192.5" width="380" height="217.5" as="geometry" />
        </mxCell>
        <mxCell id="rEuhRtgpaYb325ypVxsG-116" value="" style="endArrow=none;dashed=1;html=1;dashPattern=1 3;strokeWidth=2;rounded=0;" parent="rEuhRtgpaYb325ypVxsG-117" target="rEuhRtgpaYb325ypVxsG-95" edge="1">
          <mxGeometry width="50" height="50" relative="1" as="geometry">
            <mxPoint x="150" y="190" as="sourcePoint" />
            <mxPoint x="150" y="-30" as="targetPoint" />
          </mxGeometry>
        </mxCell>
        <mxCell id="rEuhRtgpaYb325ypVxsG-95" value="Internet" style="text;html=1;align=center;verticalAlign=middle;whiteSpace=wrap;rounded=0;" parent="rEuhRtgpaYb325ypVxsG-117" vertex="1">
          <mxGeometry x="120" width="60" height="30" as="geometry" />
        </mxCell>
        <mxCell id="rEuhRtgpaYb325ypVxsG-148" value="" style="group" parent="1" vertex="1" connectable="0">
          <mxGeometry x="642.5" y="150" width="337.5" height="240" as="geometry" />
        </mxCell>
        <mxCell id="rEuhRtgpaYb325ypVxsG-144" value="" style="rounded=0;whiteSpace=wrap;html=1;" parent="rEuhRtgpaYb325ypVxsG-148" vertex="1">
          <mxGeometry x="17.5" y="210" width="280" height="30" as="geometry" />
        </mxCell>
        <mxCell id="rEuhRtgpaYb325ypVxsG-143" value="" style="rounded=0;whiteSpace=wrap;html=1;" parent="rEuhRtgpaYb325ypVxsG-148" vertex="1">
          <mxGeometry x="17.5" y="115" width="280" height="85" as="geometry" />
        </mxCell>
        <mxCell id="rEuhRtgpaYb325ypVxsG-142" value="" style="rounded=0;whiteSpace=wrap;html=1;" parent="rEuhRtgpaYb325ypVxsG-148" vertex="1">
          <mxGeometry x="190" y="140" width="80" height="20" as="geometry" />
        </mxCell>
        <mxCell id="rEuhRtgpaYb325ypVxsG-141" value="" style="rounded=0;whiteSpace=wrap;html=1;" parent="rEuhRtgpaYb325ypVxsG-148" vertex="1">
          <mxGeometry x="190" y="175" width="80" height="20" as="geometry" />
        </mxCell>
        <mxCell id="rEuhRtgpaYb325ypVxsG-139" value="" style="rounded=0;whiteSpace=wrap;html=1;" parent="rEuhRtgpaYb325ypVxsG-148" vertex="1">
          <mxGeometry x="115" y="175" width="65" height="20" as="geometry" />
        </mxCell>
        <mxCell id="rEuhRtgpaYb325ypVxsG-140" value="" style="rounded=0;whiteSpace=wrap;html=1;" parent="rEuhRtgpaYb325ypVxsG-148" vertex="1">
          <mxGeometry x="117.5" y="140" width="62.5" height="20" as="geometry" />
        </mxCell>
        <mxCell id="rEuhRtgpaYb325ypVxsG-138" value="" style="rounded=0;whiteSpace=wrap;html=1;" parent="rEuhRtgpaYb325ypVxsG-148" vertex="1">
          <mxGeometry x="27.5" y="140" width="85" height="20" as="geometry" />
        </mxCell>
        <mxCell id="rEuhRtgpaYb325ypVxsG-137" value="" style="rounded=0;whiteSpace=wrap;html=1;" parent="rEuhRtgpaYb325ypVxsG-148" vertex="1">
          <mxGeometry x="25" y="175" width="85" height="20" as="geometry" />
        </mxCell>
        <mxCell id="rEuhRtgpaYb325ypVxsG-129" value="" style="rounded=0;whiteSpace=wrap;html=1;" parent="rEuhRtgpaYb325ypVxsG-148" vertex="1">
          <mxGeometry x="17.5" y="40" width="280" height="70" as="geometry" />
        </mxCell>
        <mxCell id="rEuhRtgpaYb325ypVxsG-128" value="" style="rounded=0;whiteSpace=wrap;html=1;" parent="rEuhRtgpaYb325ypVxsG-148" vertex="1">
          <mxGeometry x="207.5" y="70" width="80" height="30" as="geometry" />
        </mxCell>
        <mxCell id="rEuhRtgpaYb325ypVxsG-127" value="" style="rounded=0;whiteSpace=wrap;html=1;" parent="rEuhRtgpaYb325ypVxsG-148" vertex="1">
          <mxGeometry x="117.5" y="70" width="80" height="30" as="geometry" />
        </mxCell>
        <mxCell id="rEuhRtgpaYb325ypVxsG-126" value="" style="rounded=0;whiteSpace=wrap;html=1;" parent="rEuhRtgpaYb325ypVxsG-148" vertex="1">
          <mxGeometry x="27.5" y="70" width="80" height="30" as="geometry" />
        </mxCell>
        <mxCell id="rEuhRtgpaYb325ypVxsG-118" value="" style="rounded=0;whiteSpace=wrap;html=1;" parent="rEuhRtgpaYb325ypVxsG-148" vertex="1">
          <mxGeometry x="17.5" width="280" height="30" as="geometry" />
        </mxCell>
        <mxCell id="rEuhRtgpaYb325ypVxsG-119" value="Investigation Spike" style="text;html=1;align=center;verticalAlign=middle;whiteSpace=wrap;rounded=0;" parent="rEuhRtgpaYb325ypVxsG-148" vertex="1">
          <mxGeometry x="17.5" width="130" height="30" as="geometry" />
        </mxCell>
        <mxCell id="rEuhRtgpaYb325ypVxsG-120" value="Formal&amp;nbsp;Prototype" style="text;html=1;align=center;verticalAlign=middle;whiteSpace=wrap;rounded=0;" parent="rEuhRtgpaYb325ypVxsG-148" vertex="1">
          <mxGeometry x="17.5" y="40" width="130" height="30" as="geometry" />
        </mxCell>
        <mxCell id="rEuhRtgpaYb325ypVxsG-121" value="Feature iterations" style="text;html=1;align=center;verticalAlign=middle;whiteSpace=wrap;rounded=0;" parent="rEuhRtgpaYb325ypVxsG-148" vertex="1">
          <mxGeometry x="17.5" y="110" width="130" height="30" as="geometry" />
        </mxCell>
        <mxCell id="rEuhRtgpaYb325ypVxsG-122" value="Integrated Application review" style="text;html=1;align=center;verticalAlign=middle;whiteSpace=wrap;rounded=0;" parent="rEuhRtgpaYb325ypVxsG-148" vertex="1">
          <mxGeometry y="210" width="200" height="30" as="geometry" />
        </mxCell>
        <mxCell id="rEuhRtgpaYb325ypVxsG-123" value="Flask/Jinja" style="text;html=1;align=center;verticalAlign=middle;whiteSpace=wrap;rounded=0;" parent="rEuhRtgpaYb325ypVxsG-148" vertex="1">
          <mxGeometry x="37.5" y="70" width="60" height="30" as="geometry" />
        </mxCell>
        <mxCell id="rEuhRtgpaYb325ypVxsG-124" value="Rapid API" style="text;html=1;align=center;verticalAlign=middle;whiteSpace=wrap;rounded=0;" parent="rEuhRtgpaYb325ypVxsG-148" vertex="1">
          <mxGeometry x="117.5" y="70" width="60" height="30" as="geometry" />
        </mxCell>
        <mxCell id="rEuhRtgpaYb325ypVxsG-125" value="SQLAlchemy" style="text;html=1;align=center;verticalAlign=middle;whiteSpace=wrap;rounded=0;" parent="rEuhRtgpaYb325ypVxsG-148" vertex="1">
          <mxGeometry x="217.5" y="70" width="60" height="30" as="geometry" />
        </mxCell>
        <mxCell id="rEuhRtgpaYb325ypVxsG-130" value="Authentication" style="text;html=1;align=center;verticalAlign=middle;whiteSpace=wrap;rounded=0;" parent="rEuhRtgpaYb325ypVxsG-148" vertex="1">
          <mxGeometry x="40" y="170" width="60" height="30" as="geometry" />
        </mxCell>
        <mxCell id="rEuhRtgpaYb325ypVxsG-131" value="Profile" style="text;html=1;align=center;verticalAlign=middle;whiteSpace=wrap;rounded=0;" parent="rEuhRtgpaYb325ypVxsG-148" vertex="1">
          <mxGeometry x="125" y="170" width="60" height="30" as="geometry" />
        </mxCell>
        <mxCell id="rEuhRtgpaYb325ypVxsG-132" value="Calculations" style="text;html=1;align=center;verticalAlign=middle;whiteSpace=wrap;rounded=0;" parent="rEuhRtgpaYb325ypVxsG-148" vertex="1">
          <mxGeometry x="200" y="170" width="60" height="30" as="geometry" />
        </mxCell>
        <mxCell id="rEuhRtgpaYb325ypVxsG-133" value="Predictions" style="text;html=1;align=center;verticalAlign=middle;whiteSpace=wrap;rounded=0;" parent="rEuhRtgpaYb325ypVxsG-148" vertex="1">
          <mxGeometry x="200" y="140" width="60" height="30" as="geometry" />
        </mxCell>
        <mxCell id="rEuhRtgpaYb325ypVxsG-134" value="Fixtures" style="text;html=1;align=center;verticalAlign=middle;whiteSpace=wrap;rounded=0;" parent="rEuhRtgpaYb325ypVxsG-148" vertex="1">
          <mxGeometry x="125" y="140" width="60" height="30" as="geometry" />
        </mxCell>
        <mxCell id="rEuhRtgpaYb325ypVxsG-135" value="LeaderBoard" style="text;html=1;align=center;verticalAlign=middle;whiteSpace=wrap;rounded=0;" parent="rEuhRtgpaYb325ypVxsG-148" vertex="1">
          <mxGeometry x="40" y="140" width="60" height="30" as="geometry" />
        </mxCell>
        <mxCell id="rEuhRtgpaYb325ypVxsG-147" value="" style="shape=flexArrow;endArrow=classic;html=1;rounded=0;exitX=1;exitY=1;exitDx=0;exitDy=0;entryX=1;entryY=0;entryDx=0;entryDy=0;" parent="rEuhRtgpaYb325ypVxsG-148" source="rEuhRtgpaYb325ypVxsG-143" target="rEuhRtgpaYb325ypVxsG-143" edge="1">
          <mxGeometry width="50" height="50" relative="1" as="geometry">
            <mxPoint x="17.5" y="260" as="sourcePoint" />
            <mxPoint x="67.5" y="210" as="targetPoint" />
            <Array as="points">
              <mxPoint x="337.5" y="158" />
            </Array>
          </mxGeometry>
        </mxCell>
        <mxCell id="_gFdmoWR2li7CxqVkWMg-2" value="" style="rounded=0;whiteSpace=wrap;html=1;" vertex="1" parent="1">
          <mxGeometry x="1657.5" y="330" width="280" height="30" as="geometry" />
        </mxCell>
        <mxCell id="_gFdmoWR2li7CxqVkWMg-3" value="" style="rounded=0;whiteSpace=wrap;html=1;" vertex="1" parent="1">
          <mxGeometry x="1657.5" y="235" width="280" height="85" as="geometry" />
        </mxCell>
        <mxCell id="_gFdmoWR2li7CxqVkWMg-4" value="" style="rounded=0;whiteSpace=wrap;html=1;" vertex="1" parent="1">
          <mxGeometry x="1830" y="260" width="80" height="20" as="geometry" />
        </mxCell>
        <mxCell id="_gFdmoWR2li7CxqVkWMg-5" value="" style="rounded=0;whiteSpace=wrap;html=1;" vertex="1" parent="1">
          <mxGeometry x="1830" y="295" width="80" height="20" as="geometry" />
        </mxCell>
        <mxCell id="_gFdmoWR2li7CxqVkWMg-6" value="" style="rounded=0;whiteSpace=wrap;html=1;" vertex="1" parent="1">
          <mxGeometry x="1755" y="295" width="65" height="20" as="geometry" />
        </mxCell>
        <mxCell id="_gFdmoWR2li7CxqVkWMg-7" value="" style="rounded=0;whiteSpace=wrap;html=1;" vertex="1" parent="1">
          <mxGeometry x="1757.5" y="260" width="62.5" height="20" as="geometry" />
        </mxCell>
        <mxCell id="_gFdmoWR2li7CxqVkWMg-8" value="" style="rounded=0;whiteSpace=wrap;html=1;" vertex="1" parent="1">
          <mxGeometry x="1667.5" y="260" width="85" height="20" as="geometry" />
        </mxCell>
        <mxCell id="_gFdmoWR2li7CxqVkWMg-9" value="" style="rounded=0;whiteSpace=wrap;html=1;" vertex="1" parent="1">
          <mxGeometry x="1665" y="295" width="85" height="20" as="geometry" />
        </mxCell>
        <mxCell id="_gFdmoWR2li7CxqVkWMg-10" value="" style="rounded=0;whiteSpace=wrap;html=1;" vertex="1" parent="1">
          <mxGeometry x="1657.5" y="160" width="280" height="70" as="geometry" />
        </mxCell>
        <mxCell id="_gFdmoWR2li7CxqVkWMg-11" value="" style="rounded=0;whiteSpace=wrap;html=1;" vertex="1" parent="1">
          <mxGeometry x="1847.5" y="190" width="80" height="30" as="geometry" />
        </mxCell>
        <mxCell id="_gFdmoWR2li7CxqVkWMg-12" value="" style="rounded=0;whiteSpace=wrap;html=1;" vertex="1" parent="1">
          <mxGeometry x="1757.5" y="190" width="80" height="30" as="geometry" />
        </mxCell>
        <mxCell id="_gFdmoWR2li7CxqVkWMg-13" value="" style="rounded=0;whiteSpace=wrap;html=1;" vertex="1" parent="1">
          <mxGeometry x="1730" y="520" width="80" height="30" as="geometry" />
        </mxCell>
        <mxCell id="_gFdmoWR2li7CxqVkWMg-14" value="" style="rounded=0;whiteSpace=wrap;html=1;" vertex="1" parent="1">
          <mxGeometry x="1657.5" y="120" width="280" height="30" as="geometry" />
        </mxCell>
        <mxCell id="_gFdmoWR2li7CxqVkWMg-15" value="Investigation Spike" style="text;html=1;align=center;verticalAlign=middle;whiteSpace=wrap;rounded=0;" vertex="1" parent="1">
          <mxGeometry x="1657.5" y="120" width="130" height="30" as="geometry" />
        </mxCell>
        <mxCell id="_gFdmoWR2li7CxqVkWMg-16" value="Formal&amp;nbsp;Prototype" style="text;html=1;align=center;verticalAlign=middle;whiteSpace=wrap;rounded=0;" vertex="1" parent="1">
          <mxGeometry x="1657.5" y="160" width="130" height="30" as="geometry" />
        </mxCell>
        <mxCell id="_gFdmoWR2li7CxqVkWMg-17" value="Feature iterations" style="text;html=1;align=center;verticalAlign=middle;whiteSpace=wrap;rounded=0;" vertex="1" parent="1">
          <mxGeometry x="1657.5" y="230" width="130" height="30" as="geometry" />
        </mxCell>
        <mxCell id="_gFdmoWR2li7CxqVkWMg-18" value="Integrated Application review" style="text;html=1;align=center;verticalAlign=middle;whiteSpace=wrap;rounded=0;" vertex="1" parent="1">
          <mxGeometry x="1640" y="330" width="200" height="30" as="geometry" />
        </mxCell>
        <mxCell id="_gFdmoWR2li7CxqVkWMg-19" value="Flask Blueprint" style="text;html=1;align=center;verticalAlign=middle;whiteSpace=wrap;rounded=0;" vertex="1" parent="1">
          <mxGeometry x="1740" y="520" width="60" height="30" as="geometry" />
        </mxCell>
        <mxCell id="_gFdmoWR2li7CxqVkWMg-20" value="Rapid API" style="text;html=1;align=center;verticalAlign=middle;whiteSpace=wrap;rounded=0;" vertex="1" parent="1">
          <mxGeometry x="1757.5" y="190" width="60" height="30" as="geometry" />
        </mxCell>
        <mxCell id="_gFdmoWR2li7CxqVkWMg-21" value="SQLAlchemy" style="text;html=1;align=center;verticalAlign=middle;whiteSpace=wrap;rounded=0;" vertex="1" parent="1">
          <mxGeometry x="1857.5" y="190" width="60" height="30" as="geometry" />
        </mxCell>
        <mxCell id="_gFdmoWR2li7CxqVkWMg-22" value="Authentication" style="text;html=1;align=center;verticalAlign=middle;whiteSpace=wrap;rounded=0;" vertex="1" parent="1">
          <mxGeometry x="1680" y="290" width="60" height="30" as="geometry" />
        </mxCell>
        <mxCell id="_gFdmoWR2li7CxqVkWMg-23" value="Profile" style="text;html=1;align=center;verticalAlign=middle;whiteSpace=wrap;rounded=0;" vertex="1" parent="1">
          <mxGeometry x="1765" y="290" width="60" height="30" as="geometry" />
        </mxCell>
        <mxCell id="_gFdmoWR2li7CxqVkWMg-24" value="Calculations" style="text;html=1;align=center;verticalAlign=middle;whiteSpace=wrap;rounded=0;" vertex="1" parent="1">
          <mxGeometry x="1840" y="290" width="60" height="30" as="geometry" />
        </mxCell>
        <mxCell id="_gFdmoWR2li7CxqVkWMg-25" value="Predictions" style="text;html=1;align=center;verticalAlign=middle;whiteSpace=wrap;rounded=0;" vertex="1" parent="1">
          <mxGeometry x="1840" y="260" width="60" height="30" as="geometry" />
        </mxCell>
        <mxCell id="_gFdmoWR2li7CxqVkWMg-26" value="Fixtures" style="text;html=1;align=center;verticalAlign=middle;whiteSpace=wrap;rounded=0;" vertex="1" parent="1">
          <mxGeometry x="1765" y="260" width="60" height="30" as="geometry" />
        </mxCell>
        <mxCell id="_gFdmoWR2li7CxqVkWMg-27" value="LeaderBoard" style="text;html=1;align=center;verticalAlign=middle;whiteSpace=wrap;rounded=0;" vertex="1" parent="1">
          <mxGeometry x="1680" y="260" width="60" height="30" as="geometry" />
        </mxCell>
        <mxCell id="_gFdmoWR2li7CxqVkWMg-28" value="" style="shape=flexArrow;endArrow=classic;html=1;rounded=0;exitX=1;exitY=1;exitDx=0;exitDy=0;entryX=1;entryY=0;entryDx=0;entryDy=0;" edge="1" parent="1" source="_gFdmoWR2li7CxqVkWMg-3" target="_gFdmoWR2li7CxqVkWMg-3">
          <mxGeometry width="50" height="50" relative="1" as="geometry">
            <mxPoint x="1657.5" y="380" as="sourcePoint" />
            <mxPoint x="1707.5" y="330" as="targetPoint" />
            <Array as="points">
              <mxPoint x="1977.5" y="278" />
            </Array>
          </mxGeometry>
        </mxCell>
        <mxCell id="_gFdmoWR2li7CxqVkWMg-30" value="" style="rounded=0;whiteSpace=wrap;html=1;" vertex="1" parent="1">
          <mxGeometry x="1830" y="520" width="80" height="30" as="geometry" />
        </mxCell>
        <mxCell id="_gFdmoWR2li7CxqVkWMg-31" value="Flask Blueprint" style="text;html=1;align=center;verticalAlign=middle;whiteSpace=wrap;rounded=0;" vertex="1" parent="1">
          <mxGeometry x="1840" y="520" width="60" height="30" as="geometry" />
        </mxCell>
        <mxCell id="_gFdmoWR2li7CxqVkWMg-32" value="" style="rounded=0;whiteSpace=wrap;html=1;" vertex="1" parent="1">
          <mxGeometry x="1730" y="560" width="80" height="30" as="geometry" />
        </mxCell>
        <mxCell id="_gFdmoWR2li7CxqVkWMg-33" value="fantleague" style="text;html=1;align=center;verticalAlign=middle;whiteSpace=wrap;rounded=0;" vertex="1" parent="1">
          <mxGeometry x="1740" y="560" width="60" height="30" as="geometry" />
        </mxCell>
        <mxCell id="_gFdmoWR2li7CxqVkWMg-35" value="" style="rounded=0;whiteSpace=wrap;html=1;" vertex="1" parent="1">
          <mxGeometry x="1830" y="560" width="80" height="30" as="geometry" />
        </mxCell>
        <mxCell id="_gFdmoWR2li7CxqVkWMg-36" value="authentication" style="text;html=1;align=center;verticalAlign=middle;whiteSpace=wrap;rounded=0;" vertex="1" parent="1">
          <mxGeometry x="1840" y="560" width="60" height="30" as="geometry" />
        </mxCell>
        <mxCell id="_gFdmoWR2li7CxqVkWMg-37" value="" style="rounded=0;whiteSpace=wrap;html=1;" vertex="1" parent="1">
          <mxGeometry x="1777.5" y="455" width="80" height="30" as="geometry" />
        </mxCell>
        <mxCell id="_gFdmoWR2li7CxqVkWMg-38" value="FLASK&lt;div&gt;App&lt;/div&gt;" style="text;html=1;align=center;verticalAlign=middle;whiteSpace=wrap;rounded=0;" vertex="1" parent="1">
          <mxGeometry x="1787.5" y="455" width="60" height="30" as="geometry" />
        </mxCell>
        <mxCell id="_gFdmoWR2li7CxqVkWMg-39" value="" style="rounded=0;whiteSpace=wrap;html=1;" vertex="1" parent="1">
          <mxGeometry x="1917.5" y="455" width="80" height="30" as="geometry" />
        </mxCell>
        <mxCell id="_gFdmoWR2li7CxqVkWMg-40" value="context" style="text;html=1;align=center;verticalAlign=middle;whiteSpace=wrap;rounded=0;" vertex="1" parent="1">
          <mxGeometry x="1927.5" y="455" width="60" height="30" as="geometry" />
        </mxCell>
        <mxCell id="_gFdmoWR2li7CxqVkWMg-41" value="" style="rounded=0;whiteSpace=wrap;html=1;" vertex="1" parent="1">
          <mxGeometry x="1917.5" y="490" width="80" height="30" as="geometry" />
        </mxCell>
        <mxCell id="_gFdmoWR2li7CxqVkWMg-42" value="FixtureCreator" style="text;html=1;align=center;verticalAlign=middle;whiteSpace=wrap;rounded=0;" vertex="1" parent="1">
          <mxGeometry x="1927.5" y="490" width="60" height="30" as="geometry" />
        </mxCell>
        <mxCell id="_gFdmoWR2li7CxqVkWMg-43" value="" style="endArrow=none;html=1;rounded=0;exitX=0.5;exitY=0;exitDx=0;exitDy=0;entryX=0.5;entryY=1;entryDx=0;entryDy=0;" edge="1" parent="1" source="_gFdmoWR2li7CxqVkWMg-19" target="_gFdmoWR2li7CxqVkWMg-38">
          <mxGeometry width="50" height="50" relative="1" as="geometry">
            <mxPoint x="1570" y="320" as="sourcePoint" />
            <mxPoint x="1620" y="270" as="targetPoint" />
          </mxGeometry>
        </mxCell>
        <mxCell id="_gFdmoWR2li7CxqVkWMg-44" value="" style="endArrow=none;html=1;rounded=0;entryX=0.5;entryY=1;entryDx=0;entryDy=0;exitX=0.5;exitY=0;exitDx=0;exitDy=0;" edge="1" parent="1" source="_gFdmoWR2li7CxqVkWMg-31" target="_gFdmoWR2li7CxqVkWMg-38">
          <mxGeometry width="50" height="50" relative="1" as="geometry">
            <mxPoint x="1570" y="320" as="sourcePoint" />
            <mxPoint x="1620" y="270" as="targetPoint" />
          </mxGeometry>
        </mxCell>
        <mxCell id="_gFdmoWR2li7CxqVkWMg-45" value="" style="endArrow=none;html=1;rounded=0;exitX=1;exitY=0.5;exitDx=0;exitDy=0;entryX=0;entryY=0.5;entryDx=0;entryDy=0;" edge="1" parent="1" source="_gFdmoWR2li7CxqVkWMg-37" target="_gFdmoWR2li7CxqVkWMg-39">
          <mxGeometry width="50" height="50" relative="1" as="geometry">
            <mxPoint x="1570" y="320" as="sourcePoint" />
            <mxPoint x="1620" y="270" as="targetPoint" />
          </mxGeometry>
        </mxCell>
        <mxCell id="_gFdmoWR2li7CxqVkWMg-46" value="" style="endArrow=none;html=1;rounded=0;exitX=1;exitY=0.75;exitDx=0;exitDy=0;entryX=0;entryY=0.25;entryDx=0;entryDy=0;" edge="1" parent="1" source="_gFdmoWR2li7CxqVkWMg-37" target="_gFdmoWR2li7CxqVkWMg-41">
          <mxGeometry width="50" height="50" relative="1" as="geometry">
            <mxPoint x="1570" y="320" as="sourcePoint" />
            <mxPoint x="1620" y="270" as="targetPoint" />
          </mxGeometry>
        </mxCell>
      </root>
    </mxGraphModel>
  </diagram>
</mxfile>
